<mxfile host="www.draw.io" modified="2020-02-05T14:41:26.859Z" agent="Mozilla/5.0 (Windows NT 10.0; Win64; x64) AppleWebKit/537.36 (KHTML, like Gecko) Chrome/75.0.3770.142 Safari/537.36" etag="G82oHM6YPkpinIIInQWA" version="12.6.5" type="github">
  <diagram id="2ey8BvHn5M3EZ3FE7PC-" name="第 1 页">
    <mxGraphModel dx="1038" dy="548" grid="1" gridSize="10" guides="1" tooltips="1" connect="1" arrows="1" fold="1" page="1" pageScale="1" pageWidth="827" pageHeight="1169" math="0" shadow="0">
      <root>
        <mxCell id="0"/>
        <mxCell id="1" parent="0"/>
        <mxCell id="zrxn8T6nQYytHkeBPJaD-1" value="" style="line;strokeWidth=2;direction=south;html=1;dashed=1;" vertex="1" parent="1">
          <mxGeometry x="307" y="110" width="10" height="350" as="geometry"/>
        </mxCell>
        <mxCell id="zrxn8T6nQYytHkeBPJaD-4" value="Application Context&lt;br&gt;用户态" style="text;html=1;strokeColor=#82b366;fillColor=#d5e8d4;align=center;verticalAlign=middle;whiteSpace=wrap;rounded=0;dashed=1;" vertex="1" parent="1">
          <mxGeometry x="117" y="70" width="130" height="30" as="geometry"/>
        </mxCell>
        <mxCell id="zrxn8T6nQYytHkeBPJaD-5" value="Kernal Context&lt;br&gt;内核态" style="text;html=1;strokeColor=#b85450;fillColor=#f8cecc;align=center;verticalAlign=middle;whiteSpace=wrap;rounded=0;dashed=1;" vertex="1" parent="1">
          <mxGeometry x="374.5" y="70" width="130" height="30" as="geometry"/>
        </mxCell>
        <mxCell id="zrxn8T6nQYytHkeBPJaD-8" style="edgeStyle=orthogonalEdgeStyle;rounded=0;orthogonalLoop=1;jettySize=auto;html=1;entryX=0.5;entryY=0;entryDx=0;entryDy=0;" edge="1" parent="1" source="zrxn8T6nQYytHkeBPJaD-6" target="zrxn8T6nQYytHkeBPJaD-7">
          <mxGeometry relative="1" as="geometry"/>
        </mxCell>
        <mxCell id="zrxn8T6nQYytHkeBPJaD-18" value="1" style="text;html=1;align=center;verticalAlign=middle;resizable=0;points=[];labelBackgroundColor=#ffffff;" vertex="1" connectable="0" parent="zrxn8T6nQYytHkeBPJaD-8">
          <mxGeometry x="-0.224" relative="1" as="geometry">
            <mxPoint as="offset"/>
          </mxGeometry>
        </mxCell>
        <mxCell id="zrxn8T6nQYytHkeBPJaD-6" value="" style="shape=cylinder;whiteSpace=wrap;html=1;boundedLbl=1;backgroundOutline=1;" vertex="1" parent="1">
          <mxGeometry x="412" y="130" width="55" height="40" as="geometry"/>
        </mxCell>
        <mxCell id="zrxn8T6nQYytHkeBPJaD-11" style="edgeStyle=orthogonalEdgeStyle;rounded=0;orthogonalLoop=1;jettySize=auto;html=1;entryX=1;entryY=0.25;entryDx=0;entryDy=0;" edge="1" parent="1" source="zrxn8T6nQYytHkeBPJaD-7" target="zrxn8T6nQYytHkeBPJaD-10">
          <mxGeometry relative="1" as="geometry"/>
        </mxCell>
        <mxCell id="zrxn8T6nQYytHkeBPJaD-19" value="2" style="text;html=1;align=center;verticalAlign=middle;resizable=0;points=[];labelBackgroundColor=#ffffff;" vertex="1" connectable="0" parent="zrxn8T6nQYytHkeBPJaD-11">
          <mxGeometry x="-0.3696" relative="1" as="geometry">
            <mxPoint as="offset"/>
          </mxGeometry>
        </mxCell>
        <mxCell id="zrxn8T6nQYytHkeBPJaD-7" value="Read Buffer" style="rounded=1;whiteSpace=wrap;html=1;" vertex="1" parent="1">
          <mxGeometry x="394.5" y="220" width="90" height="40" as="geometry"/>
        </mxCell>
        <mxCell id="zrxn8T6nQYytHkeBPJaD-9" value="1.&amp;nbsp;&lt;span style=&quot;color: rgb(51 , 51 , 51) ; font-family: &amp;#34;open sans&amp;#34; , &amp;#34;clear sans&amp;#34; , &amp;#34;helvetica neue&amp;#34; , &amp;#34;helvetica&amp;#34; , &amp;#34;arial&amp;#34; , sans-serif ; font-size: 16px ; text-align: left ; white-space: pre-wrap ; background-color: rgb(255 , 255 , 255)&quot;&gt;先将数据从磁盘读取到操作系统的内核缓冲区&lt;/span&gt;" style="text;html=1;strokeColor=none;fillColor=none;align=center;verticalAlign=middle;whiteSpace=wrap;rounded=0;" vertex="1" parent="1">
          <mxGeometry x="480" y="180" width="340" height="10" as="geometry"/>
        </mxCell>
        <mxCell id="zrxn8T6nQYytHkeBPJaD-14" style="edgeStyle=orthogonalEdgeStyle;rounded=0;orthogonalLoop=1;jettySize=auto;html=1;exitX=1;exitY=0.75;exitDx=0;exitDy=0;entryX=0;entryY=0.5;entryDx=0;entryDy=0;" edge="1" parent="1" source="zrxn8T6nQYytHkeBPJaD-10" target="zrxn8T6nQYytHkeBPJaD-13">
          <mxGeometry relative="1" as="geometry"/>
        </mxCell>
        <mxCell id="zrxn8T6nQYytHkeBPJaD-20" value="3" style="text;html=1;align=center;verticalAlign=middle;resizable=0;points=[];labelBackgroundColor=#ffffff;" vertex="1" connectable="0" parent="zrxn8T6nQYytHkeBPJaD-14">
          <mxGeometry x="0.372" relative="1" as="geometry">
            <mxPoint as="offset"/>
          </mxGeometry>
        </mxCell>
        <mxCell id="zrxn8T6nQYytHkeBPJaD-10" value="Application Buffer&lt;br&gt;进程缓冲区" style="rounded=1;whiteSpace=wrap;html=1;" vertex="1" parent="1">
          <mxGeometry x="117" y="255" width="120" height="60" as="geometry"/>
        </mxCell>
        <mxCell id="zrxn8T6nQYytHkeBPJaD-12" value="2.&amp;nbsp;&lt;span style=&quot;color: rgb(51 , 51 , 51) ; font-family: &amp;#34;open sans&amp;#34; , &amp;#34;clear sans&amp;#34; , &amp;#34;helvetica neue&amp;#34; , &amp;#34;helvetica&amp;#34; , &amp;#34;arial&amp;#34; , sans-serif ; font-size: 16px ; text-align: left ; white-space: pre-wrap ; background-color: rgb(255 , 255 , 255)&quot;&gt;再将数据跨内核推到应用程序进程&lt;/span&gt;" style="text;html=1;strokeColor=none;fillColor=none;align=center;verticalAlign=middle;whiteSpace=wrap;rounded=0;" vertex="1" parent="1">
          <mxGeometry x="27" y="210" width="280" height="20" as="geometry"/>
        </mxCell>
        <mxCell id="zrxn8T6nQYytHkeBPJaD-17" style="edgeStyle=orthogonalEdgeStyle;rounded=0;orthogonalLoop=1;jettySize=auto;html=1;" edge="1" parent="1" source="zrxn8T6nQYytHkeBPJaD-13" target="zrxn8T6nQYytHkeBPJaD-16">
          <mxGeometry relative="1" as="geometry"/>
        </mxCell>
        <mxCell id="zrxn8T6nQYytHkeBPJaD-21" value="4" style="text;html=1;align=center;verticalAlign=middle;resizable=0;points=[];labelBackgroundColor=#ffffff;" vertex="1" connectable="0" parent="zrxn8T6nQYytHkeBPJaD-17">
          <mxGeometry x="-0.192" relative="1" as="geometry">
            <mxPoint as="offset"/>
          </mxGeometry>
        </mxCell>
        <mxCell id="zrxn8T6nQYytHkeBPJaD-13" value="Socket Buffer" style="rounded=1;whiteSpace=wrap;html=1;" vertex="1" parent="1">
          <mxGeometry x="394.5" y="340" width="90" height="40" as="geometry"/>
        </mxCell>
        <mxCell id="zrxn8T6nQYytHkeBPJaD-15" value="3.&amp;nbsp;&lt;span style=&quot;color: rgb(51 , 51 , 51) ; font-family: &amp;#34;open sans&amp;#34; , &amp;#34;clear sans&amp;#34; , &amp;#34;helvetica neue&amp;#34; , &amp;#34;helvetica&amp;#34; , &amp;#34;arial&amp;#34; , sans-serif ; font-size: 16px ; text-align: left ; white-space: pre-wrap ; background-color: rgb(255 , 255 , 255)&quot;&gt;应用程序进程会再次将数据推回到内核中的套字节缓冲区&lt;/span&gt;" style="text;html=1;strokeColor=none;fillColor=none;align=center;verticalAlign=middle;whiteSpace=wrap;rounded=0;" vertex="1" parent="1">
          <mxGeometry x="50" y="340" width="230" height="40" as="geometry"/>
        </mxCell>
        <mxCell id="zrxn8T6nQYytHkeBPJaD-16" value="NIC Buffer&lt;br&gt;网卡缓冲区" style="rounded=1;whiteSpace=wrap;html=1;" vertex="1" parent="1">
          <mxGeometry x="394.5" y="430" width="90" height="40" as="geometry"/>
        </mxCell>
        <mxCell id="zrxn8T6nQYytHkeBPJaD-22" value="4.&amp;nbsp;&lt;span style=&quot;color: rgb(51 , 51 , 51) ; font-family: &amp;#34;open sans&amp;#34; , &amp;#34;clear sans&amp;#34; , &amp;#34;helvetica neue&amp;#34; , &amp;#34;helvetica&amp;#34; , &amp;#34;arial&amp;#34; , sans-serif ; font-size: 16px ; text-align: left ; white-space: pre-wrap ; background-color: rgb(255 , 255 , 255)&quot;&gt;最后将数据写入到网卡缓冲区&lt;/span&gt;" style="text;html=1;strokeColor=none;fillColor=none;align=center;verticalAlign=middle;whiteSpace=wrap;rounded=0;" vertex="1" parent="1">
          <mxGeometry x="480" y="390" width="270" height="30" as="geometry"/>
        </mxCell>
      </root>
    </mxGraphModel>
  </diagram>
</mxfile>
